<svg xmlns="http://www.w3.org/2000/svg" xmlns:xlink="http://www.w3.org/1999/xlink" width="500" zoomAndPan="magnify" viewBox="0 0 375 374.999991" height="500" preserveAspectRatio="xMidYMid meet" version="1.0"><defs><g/></defs><path stroke-linecap="butt" transform="matrix(0.75, 0, 0, 0.75, 7.229762, 106.881768)" fill="none" stroke-linejoin="miter" d="M 24.651986 127.032651 C 17.870735 119.6264 14.474902 110.553483 14.474902 99.813899 C 14.474902 89.074315 17.870735 79.985773 24.651986 72.558689 C 31.438445 65.110772 40.063445 61.381605 50.526987 61.381605 C 60.11553 61.381605 68.026989 64.39723 74.261364 70.423272 L 74.261364 14.464935 L 99.271782 14.464935 L 99.271782 136.001401 L 74.537406 136.001401 L 74.537406 127.787859 L 74.261364 127.787859 C 68.026989 134.668068 60.11553 138.105568 50.526987 138.105568 C 40.063445 138.105568 31.438445 134.41286 24.651986 127.032651 Z M 45.901987 87.532648 C 42.662404 90.730565 41.037404 94.834732 41.037404 99.845149 C 41.037404 104.839941 42.594695 108.90765 45.698862 112.058691 C 48.823862 115.209733 52.928029 116.78265 58.011363 116.78265 C 62.912405 116.78265 66.933239 115.1889 70.08428 111.990983 C 73.235322 108.772233 74.813447 104.709733 74.813447 99.813899 C 74.813447 94.824315 73.193656 90.730565 69.948864 87.532648 C 66.704072 84.334731 62.724905 82.735773 58.011363 82.735773 C 53.204071 82.735773 49.167612 84.334731 45.901987 87.532648 Z M 130.776993 63.52223 L 130.776993 97.985774 C 130.776993 105.136816 131.860326 110.230566 134.021785 113.267025 C 136.183243 116.277442 139.84991 117.787858 145.026994 117.787858 C 150.224911 117.787858 153.901994 116.277442 156.063453 113.267025 C 158.224911 110.230566 159.308245 105.136816 159.308245 97.985774 L 159.308245 63.52223 L 184.318663 63.52223 L 184.318663 104.053483 C 184.318663 116.131608 181.178038 124.824317 174.901996 130.136818 C 168.646787 135.449318 158.688453 138.105568 145.026994 138.105568 C 131.386368 138.105568 121.428034 135.449318 115.151992 130.136818 C 108.896783 124.824317 105.766574 116.131608 105.766574 104.053483 L 105.766574 63.52223 Z M 190.82908 136.001401 L 190.82908 63.52223 L 215.839498 63.52223 L 215.839498 71.14723 L 216.11554 71.14723 C 222.625957 64.636813 229.547833 61.381605 236.881166 61.381605 C 242.152 61.381605 247.094709 62.475355 251.714501 64.657647 C 256.339501 66.824313 259.823876 70.157647 262.167626 74.662856 C 269.527002 65.808688 277.542627 61.381605 286.214503 61.381605 C 293.917628 61.381605 300.553046 63.558688 306.120754 67.902439 C 311.683255 72.225356 314.464505 79.011814 314.464505 88.256607 L 314.464505 136.001401 L 289.459295 136.001401 L 289.459295 95.017024 C 289.459295 91.15244 288.386378 87.93369 286.250961 85.360773 C 284.13117 82.761815 280.959294 81.459731 276.724919 81.459731 C 273.047835 81.459731 270.240544 82.563898 268.308252 84.772231 C 266.37596 86.980565 265.318668 89.647232 265.136377 92.77744 L 265.136377 136.001401 L 240.125958 136.001401 L 240.125958 95.017024 C 240.125958 91.15244 239.068667 87.93369 236.954083 85.360773 C 234.834291 82.761815 231.662416 81.459731 227.433249 81.459731 C 223.568666 81.459731 220.667624 82.668065 218.735332 85.084731 C 216.808248 87.475357 215.839498 90.313898 215.839498 93.605565 L 215.839498 136.001401 Z M 395.547843 72.490981 C 402.329094 79.871189 405.724927 88.93369 405.724927 99.673274 C 405.724927 110.412858 402.329094 119.511817 395.547843 126.959734 C 388.782218 134.392026 380.172842 138.105568 369.7093 138.105568 C 360.094716 138.105568 352.183257 135.089943 345.974924 129.063901 L 345.974924 172.740987 L 320.964505 172.740987 L 320.964505 63.52223 L 345.698882 63.52223 L 345.698882 71.699314 L 345.974924 71.699314 C 352.183257 64.819105 360.094716 61.381605 369.7093 61.381605 C 380.172842 61.381605 388.782218 65.08473 395.547843 72.490981 Z M 374.297842 111.990983 C 377.537426 108.772233 379.157217 104.662858 379.157217 99.673274 C 379.157217 94.68369 377.605134 90.610773 374.500967 87.46494 C 371.3968 84.313898 367.30305 82.735773 362.219716 82.735773 C 357.323883 82.735773 353.287424 84.334731 350.115549 87.532648 C 346.964507 90.730565 345.386382 94.77744 345.386382 99.673274 C 345.386382 104.662858 347.006174 108.772233 350.250966 111.990983 C 353.516591 115.1889 357.506174 116.78265 362.219716 116.78265 C 367.027008 116.78265 371.05305 115.1889 374.297842 111.990983 Z M 439.922846 61.381605 C 444.058263 61.381605 448.152014 61.855563 452.204097 62.798272 C 456.271806 63.74098 459.297848 64.683688 461.277014 65.626397 L 464.240556 67.037855 L 456.032222 83.428481 C 450.375972 80.412856 445.00618 78.907648 439.922846 78.907648 C 437.094721 78.907648 435.089513 79.220148 433.917638 79.839939 C 432.745763 80.438898 432.157221 81.584731 432.157221 83.287856 C 432.157221 83.678481 432.204096 84.05869 432.297846 84.428481 C 432.391596 84.793065 432.573888 85.15244 432.849929 85.49619 C 433.146804 85.819106 433.412429 86.095148 433.641596 86.324315 C 433.870763 86.553481 434.261388 86.819106 434.813471 87.115981 C 435.391596 87.392023 435.839513 87.600357 436.162429 87.740982 C 436.50618 87.876398 437.047846 88.095148 437.782221 88.392023 C 438.542638 88.668065 439.105138 88.876398 439.47493 89.017023 C 439.865555 89.15244 440.50618 89.37119 441.402013 89.668065 C 442.303055 89.944107 442.990555 90.131607 443.47493 90.220148 C 446.396805 91.074315 448.938472 92.017023 451.09993 93.053482 C 453.261389 94.084732 455.537431 95.501399 457.928056 97.293065 C 460.344723 99.089941 462.204098 101.355566 463.516598 104.089941 C 464.849931 106.803483 465.516598 109.90765 465.516598 113.402442 C 465.516598 129.871193 454.063472 138.105568 431.157221 138.105568 C 425.985345 138.105568 421.06347 137.308693 416.391595 135.72536 C 411.724928 134.115985 408.355136 132.517026 406.287428 130.928484 L 403.183261 128.376401 L 413.360345 111.267025 C 414.115553 111.933691 415.105136 112.714941 416.323887 113.610775 C 417.542637 114.506608 419.75097 115.740983 422.948887 117.303483 C 426.167637 118.84515 428.948887 119.615984 431.297846 119.615984 C 436.495763 119.615984 439.094721 117.865983 439.094721 114.371192 C 439.094721 112.78265 438.428055 111.543066 437.094721 110.647233 C 435.782221 109.746191 433.537429 108.735775 430.365554 107.610774 C 427.214512 106.480566 424.756179 105.449316 422.985345 104.506608 C 418.454095 102.136816 414.865553 99.470149 412.21972 96.501399 C 409.599928 93.532649 408.287428 89.600357 408.287428 84.704523 C 408.287428 77.365981 411.12597 71.652439 416.808262 67.558689 C 422.511387 63.438897 430.214512 61.381605 439.922846 61.381605 Z M 439.922846 61.381605 " stroke="#61a6ff" stroke-width="5.122451" stroke-opacity="1" stroke-miterlimit="4"/><g fill="#1877f2" fill-opacity="1"><g transform="translate(15.655543, 208.881761)"><g><path d="M 10.0625 -6.71875 C 4.976562 -12.269531 2.4375 -19.070312 2.4375 -27.125 C 2.4375 -35.175781 4.976562 -41.992188 10.0625 -47.578125 C 15.15625 -53.160156 21.617188 -55.953125 29.453125 -55.953125 C 36.660156 -55.953125 42.597656 -53.691406 47.265625 -49.171875 L 47.265625 -91.140625 L 66.015625 -91.140625 L 66.015625 0 L 47.46875 0 L 47.46875 -6.140625 L 47.265625 -6.140625 C 42.597656 -0.984375 36.660156 1.59375 29.453125 1.59375 C 21.617188 1.59375 15.15625 -1.175781 10.0625 -6.71875 Z M 26.015625 -36.34375 C 23.578125 -33.945312 22.359375 -30.875 22.359375 -27.125 C 22.359375 -23.382812 23.523438 -20.328125 25.859375 -17.953125 C 28.191406 -15.585938 31.265625 -14.40625 35.078125 -14.40625 C 38.753906 -14.40625 41.773438 -15.609375 44.140625 -18.015625 C 46.503906 -20.421875 47.6875 -23.457031 47.6875 -27.125 C 47.6875 -30.875 46.46875 -33.945312 44.03125 -36.34375 C 41.59375 -38.75 38.609375 -39.953125 35.078125 -39.953125 C 31.472656 -39.953125 28.453125 -38.75 26.015625 -36.34375 Z M 26.015625 -36.34375 "/></g></g></g><g fill="#1877f2" fill-opacity="1"><g transform="translate(81.25202, 208.881761)"><g><path d="M 24.0625 -54.359375 L 24.0625 -28.5 C 24.0625 -23.132812 24.867188 -19.320312 26.484375 -17.0625 C 28.109375 -14.800781 30.863281 -13.671875 34.75 -13.671875 C 38.644531 -13.671875 41.398438 -14.800781 43.015625 -17.0625 C 44.640625 -19.320312 45.453125 -23.132812 45.453125 -28.5 L 45.453125 -54.359375 L 64.21875 -54.359375 L 64.21875 -23.953125 C 64.21875 -14.910156 61.867188 -8.390625 57.171875 -4.390625 C 52.472656 -0.398438 45 1.59375 34.75 1.59375 C 24.507812 1.59375 17.039062 -0.398438 12.34375 -4.390625 C 7.644531 -8.390625 5.296875 -14.910156 5.296875 -23.953125 L 5.296875 -54.359375 Z M 24.0625 -54.359375 "/></g></g></g><g fill="#1877f2" fill-opacity="1"><g transform="translate(143.987245, 208.881761)"><g><path d="M 6.359375 0 L 6.359375 -54.359375 L 25.109375 -54.359375 L 25.109375 -48.640625 L 25.328125 -48.640625 C 30.203125 -53.515625 35.394531 -55.953125 40.90625 -55.953125 C 44.863281 -55.953125 48.570312 -55.140625 52.03125 -53.515625 C 55.488281 -51.890625 58.101562 -49.378906 59.875 -45.984375 C 65.382812 -52.628906 71.390625 -55.953125 77.890625 -55.953125 C 83.679688 -55.953125 88.660156 -54.328125 92.828125 -51.078125 C 96.992188 -47.828125 99.078125 -42.738281 99.078125 -35.8125 L 99.078125 0 L 80.328125 0 L 80.328125 -30.734375 C 80.328125 -33.628906 79.53125 -36.046875 77.9375 -37.984375 C 76.351562 -39.929688 73.96875 -40.90625 70.78125 -40.90625 C 68.03125 -40.90625 65.929688 -40.070312 64.484375 -38.40625 C 63.035156 -36.75 62.238281 -34.753906 62.09375 -32.421875 L 62.09375 0 L 43.34375 0 L 43.34375 -30.734375 C 43.34375 -33.628906 42.546875 -36.046875 40.953125 -37.984375 C 39.367188 -39.929688 36.984375 -40.90625 33.796875 -40.90625 C 30.898438 -40.90625 28.726562 -40.003906 27.28125 -38.203125 C 25.832031 -36.398438 25.109375 -34.265625 25.109375 -31.796875 L 25.109375 0 Z M 6.359375 0 "/></g></g></g><g fill="#1877f2" fill-opacity="1"><g transform="translate(241.587466, 208.881761)"><g><path d="M 62.3125 -47.625 C 67.394531 -42.082031 69.9375 -35.285156 69.9375 -27.234375 C 69.9375 -19.179688 67.394531 -12.363281 62.3125 -6.78125 C 57.226562 -1.195312 50.765625 1.59375 42.921875 1.59375 C 35.710938 1.59375 29.773438 -0.664062 25.109375 -5.1875 L 25.109375 27.546875 L 6.359375 27.546875 L 6.359375 -54.359375 L 24.90625 -54.359375 L 24.90625 -48.21875 L 25.109375 -48.21875 C 29.773438 -53.375 35.710938 -55.953125 42.921875 -55.953125 C 50.765625 -55.953125 57.226562 -53.175781 62.3125 -47.625 Z M 46.359375 -18.015625 C 48.796875 -20.421875 50.015625 -23.492188 50.015625 -27.234375 C 50.015625 -30.972656 48.847656 -34.023438 46.515625 -36.390625 C 44.179688 -38.765625 41.109375 -39.953125 37.296875 -39.953125 C 33.628906 -39.953125 30.609375 -38.75 28.234375 -36.34375 C 25.867188 -33.945312 24.6875 -30.910156 24.6875 -27.234375 C 24.6875 -23.492188 25.90625 -20.421875 28.34375 -18.015625 C 30.78125 -15.609375 33.765625 -14.40625 37.296875 -14.40625 C 40.898438 -14.40625 43.921875 -15.609375 46.359375 -18.015625 Z M 46.359375 -18.015625 "/></g></g></g><g fill="#1877f2" fill-opacity="1"><g transform="translate(307.183943, 208.881761)"><g><path d="M 29.984375 -55.953125 C 33.097656 -55.953125 36.171875 -55.597656 39.203125 -54.890625 C 42.242188 -54.179688 44.503906 -53.472656 45.984375 -52.765625 L 48.21875 -51.71875 L 42.0625 -39.421875 C 37.832031 -41.679688 33.804688 -42.8125 29.984375 -42.8125 C 27.867188 -42.8125 26.367188 -42.582031 25.484375 -42.125 C 24.597656 -41.664062 24.15625 -40.800781 24.15625 -39.53125 C 24.15625 -39.25 24.191406 -38.960938 24.265625 -38.671875 C 24.335938 -38.390625 24.476562 -38.125 24.6875 -37.875 C 24.90625 -37.632812 25.097656 -37.425781 25.265625 -37.25 C 25.441406 -37.070312 25.742188 -36.875 26.171875 -36.65625 C 26.597656 -36.445312 26.929688 -36.289062 27.171875 -36.1875 C 27.421875 -36.082031 27.828125 -35.921875 28.390625 -35.703125 C 28.960938 -35.492188 29.390625 -35.335938 29.671875 -35.234375 C 29.953125 -35.128906 30.425781 -34.96875 31.09375 -34.75 C 31.769531 -34.539062 32.285156 -34.398438 32.640625 -34.328125 C 34.828125 -33.691406 36.734375 -32.984375 38.359375 -32.203125 C 39.984375 -31.429688 41.695312 -30.375 43.5 -29.03125 C 45.300781 -27.6875 46.695312 -25.988281 47.6875 -23.9375 C 48.675781 -21.894531 49.171875 -19.566406 49.171875 -16.953125 C 49.171875 -4.585938 40.585938 1.59375 23.421875 1.59375 C 19.535156 1.59375 15.84375 0.992188 12.34375 -0.203125 C 8.84375 -1.410156 6.316406 -2.613281 4.765625 -3.8125 L 2.4375 -5.71875 L 10.0625 -18.546875 C 10.632812 -18.046875 11.378906 -17.460938 12.296875 -16.796875 C 13.210938 -16.128906 14.867188 -15.210938 17.265625 -14.046875 C 19.671875 -12.878906 21.757812 -12.296875 23.53125 -12.296875 C 27.414062 -12.296875 29.359375 -13.601562 29.359375 -16.21875 C 29.359375 -17.414062 28.863281 -18.347656 27.875 -19.015625 C 26.882812 -19.691406 25.203125 -20.453125 22.828125 -21.296875 C 20.460938 -22.148438 18.609375 -22.925781 17.265625 -23.625 C 13.878906 -25.394531 11.195312 -27.390625 9.21875 -29.609375 C 7.238281 -31.835938 6.25 -34.789062 6.25 -38.46875 C 6.25 -43.976562 8.382812 -48.269531 12.65625 -51.34375 C 16.9375 -54.414062 22.710938 -55.953125 29.984375 -55.953125 Z M 29.984375 -55.953125 "/></g></g></g><g fill="#545454" fill-opacity="1"><g transform="translate(26.982703, 240.118871)"><g><path d="M 13.640625 -4.65625 C 14.429688 -4.65625 15.191406 -4.769531 15.921875 -5 C 16.660156 -5.238281 17.207031 -5.46875 17.5625 -5.6875 L 18.078125 -6.046875 L 20.265625 -1.671875 C 20.191406 -1.617188 20.085938 -1.546875 19.953125 -1.453125 C 19.828125 -1.359375 19.53125 -1.1875 19.0625 -0.9375 C 18.601562 -0.695312 18.109375 -0.484375 17.578125 -0.296875 C 17.054688 -0.117188 16.363281 0.0390625 15.5 0.1875 C 14.644531 0.332031 13.765625 0.40625 12.859375 0.40625 C 10.753906 0.40625 8.765625 -0.109375 6.890625 -1.140625 C 5.015625 -2.171875 3.5 -3.585938 2.34375 -5.390625 C 1.195312 -7.191406 0.625 -9.140625 0.625 -11.234375 C 0.625 -12.828125 0.960938 -14.351562 1.640625 -15.8125 C 2.316406 -17.269531 3.210938 -18.515625 4.328125 -19.546875 C 5.453125 -20.585938 6.757812 -21.414062 8.25 -22.03125 C 9.75 -22.65625 11.285156 -22.96875 12.859375 -22.96875 C 14.316406 -22.96875 15.660156 -22.796875 16.890625 -22.453125 C 18.117188 -22.109375 18.988281 -21.757812 19.5 -21.40625 L 20.265625 -20.890625 L 18.078125 -16.515625 C 17.953125 -16.628906 17.757812 -16.757812 17.5 -16.90625 C 17.25 -17.0625 16.738281 -17.265625 15.96875 -17.515625 C 15.207031 -17.773438 14.429688 -17.90625 13.640625 -17.90625 C 12.398438 -17.90625 11.285156 -17.703125 10.296875 -17.296875 C 9.316406 -16.898438 8.539062 -16.375 7.96875 -15.71875 C 7.394531 -15.0625 6.957031 -14.351562 6.65625 -13.59375 C 6.351562 -12.84375 6.203125 -12.078125 6.203125 -11.296875 C 6.203125 -9.578125 6.84375 -8.039062 8.125 -6.6875 C 9.414062 -5.332031 11.253906 -4.65625 13.640625 -4.65625 Z M 13.640625 -4.65625 "/></g></g></g><g fill="#545454" fill-opacity="1"><g transform="translate(50.71446, 240.118871)"><g><path d="M 0.625 -11.296875 C 0.625 -14.554688 1.734375 -17.316406 3.953125 -19.578125 C 6.179688 -21.835938 8.863281 -22.96875 12 -22.96875 C 15.15625 -22.96875 17.835938 -21.84375 20.046875 -19.59375 C 22.253906 -17.34375 23.359375 -14.578125 23.359375 -11.296875 C 23.359375 -7.992188 22.269531 -5.21875 20.09375 -2.96875 C 17.925781 -0.71875 15.226562 0.40625 12 0.40625 C 8.707031 0.40625 5.988281 -0.707031 3.84375 -2.9375 C 1.695312 -5.175781 0.625 -7.960938 0.625 -11.296875 Z M 6.1875 -11.296875 C 6.1875 -10.109375 6.367188 -9.023438 6.734375 -8.046875 C 7.097656 -7.078125 7.734375 -6.253906 8.640625 -5.578125 C 9.554688 -4.898438 10.675781 -4.5625 12 -4.5625 C 13.914062 -4.5625 15.359375 -5.21875 16.328125 -6.53125 C 17.304688 -7.84375 17.796875 -9.429688 17.796875 -11.296875 C 17.796875 -13.140625 17.300781 -14.71875 16.3125 -16.03125 C 15.320312 -17.351562 13.882812 -18.015625 12 -18.015625 C 10.144531 -18.015625 8.710938 -17.351562 7.703125 -16.03125 C 6.691406 -14.71875 6.1875 -13.140625 6.1875 -11.296875 Z M 6.1875 -11.296875 "/></g></g></g><g fill="#545454" fill-opacity="1"><g transform="translate(77.836347, 240.118871)"><g><path d="M 6.78125 -22.5625 L 6.78125 -4.515625 L 14.546875 -4.515625 L 14.546875 0 L 1.640625 0 L 1.640625 -22.5625 Z M 6.78125 -22.5625 "/></g></g></g><g fill="#545454" fill-opacity="1"><g transform="translate(96.428228, 240.118871)"><g><path d="M 6.78125 -22.5625 L 6.78125 -4.515625 L 14.546875 -4.515625 L 14.546875 0 L 1.640625 0 L 1.640625 -22.5625 Z M 6.78125 -22.5625 "/></g></g></g><g fill="#545454" fill-opacity="1"><g transform="translate(115.020116, 240.118871)"><g><path d="M 14.546875 -22.5625 L 14.546875 -18.046875 L 6.78125 -18.046875 L 6.78125 -13.5625 L 14.21875 -13.5625 L 14.21875 -9.046875 L 6.78125 -9.046875 L 6.78125 -4.515625 L 14.546875 -4.515625 L 14.546875 0 L 1.640625 0 L 1.640625 -22.5625 Z M 14.546875 -22.5625 "/></g></g></g><g fill="#545454" fill-opacity="1"><g transform="translate(134.022102, 240.118871)"><g><path d="M 13.640625 -4.65625 C 14.429688 -4.65625 15.191406 -4.769531 15.921875 -5 C 16.660156 -5.238281 17.207031 -5.46875 17.5625 -5.6875 L 18.078125 -6.046875 L 20.265625 -1.671875 C 20.191406 -1.617188 20.085938 -1.546875 19.953125 -1.453125 C 19.828125 -1.359375 19.53125 -1.1875 19.0625 -0.9375 C 18.601562 -0.695312 18.109375 -0.484375 17.578125 -0.296875 C 17.054688 -0.117188 16.363281 0.0390625 15.5 0.1875 C 14.644531 0.332031 13.765625 0.40625 12.859375 0.40625 C 10.753906 0.40625 8.765625 -0.109375 6.890625 -1.140625 C 5.015625 -2.171875 3.5 -3.585938 2.34375 -5.390625 C 1.195312 -7.191406 0.625 -9.140625 0.625 -11.234375 C 0.625 -12.828125 0.960938 -14.351562 1.640625 -15.8125 C 2.316406 -17.269531 3.210938 -18.515625 4.328125 -19.546875 C 5.453125 -20.585938 6.757812 -21.414062 8.25 -22.03125 C 9.75 -22.65625 11.285156 -22.96875 12.859375 -22.96875 C 14.316406 -22.96875 15.660156 -22.796875 16.890625 -22.453125 C 18.117188 -22.109375 18.988281 -21.757812 19.5 -21.40625 L 20.265625 -20.890625 L 18.078125 -16.515625 C 17.953125 -16.628906 17.757812 -16.757812 17.5 -16.90625 C 17.25 -17.0625 16.738281 -17.265625 15.96875 -17.515625 C 15.207031 -17.773438 14.429688 -17.90625 13.640625 -17.90625 C 12.398438 -17.90625 11.285156 -17.703125 10.296875 -17.296875 C 9.316406 -16.898438 8.539062 -16.375 7.96875 -15.71875 C 7.394531 -15.0625 6.957031 -14.351562 6.65625 -13.59375 C 6.351562 -12.84375 6.203125 -12.078125 6.203125 -11.296875 C 6.203125 -9.578125 6.84375 -8.039062 8.125 -6.6875 C 9.414062 -5.332031 11.253906 -4.65625 13.640625 -4.65625 Z M 13.640625 -4.65625 "/></g></g></g><g fill="#545454" fill-opacity="1"><g transform="translate(157.753862, 240.118871)"><g><path d="M 0.21875 -18.046875 L 0.21875 -22.5625 L 16.078125 -22.5625 L 16.078125 -18.046875 L 10.71875 -18.046875 L 10.71875 0 L 5.578125 0 L 5.578125 -18.046875 Z M 0.21875 -18.046875 "/></g></g></g><g fill="#545454" fill-opacity="1"><g transform="translate(177.193287, 240.118871)"><g><path d="M 6.78125 -22.5625 L 6.78125 0 L 1.640625 0 L 1.640625 -22.5625 Z M 6.78125 -22.5625 "/></g></g></g><g fill="#545454" fill-opacity="1"><g transform="translate(188.758857, 240.118871)"><g><path d="M 0.625 -11.296875 C 0.625 -14.554688 1.734375 -17.316406 3.953125 -19.578125 C 6.179688 -21.835938 8.863281 -22.96875 12 -22.96875 C 15.15625 -22.96875 17.835938 -21.84375 20.046875 -19.59375 C 22.253906 -17.34375 23.359375 -14.578125 23.359375 -11.296875 C 23.359375 -7.992188 22.269531 -5.21875 20.09375 -2.96875 C 17.925781 -0.71875 15.226562 0.40625 12 0.40625 C 8.707031 0.40625 5.988281 -0.707031 3.84375 -2.9375 C 1.695312 -5.175781 0.625 -7.960938 0.625 -11.296875 Z M 6.1875 -11.296875 C 6.1875 -10.109375 6.367188 -9.023438 6.734375 -8.046875 C 7.097656 -7.078125 7.734375 -6.253906 8.640625 -5.578125 C 9.554688 -4.898438 10.675781 -4.5625 12 -4.5625 C 13.914062 -4.5625 15.359375 -5.21875 16.328125 -6.53125 C 17.304688 -7.84375 17.796875 -9.429688 17.796875 -11.296875 C 17.796875 -13.140625 17.300781 -14.71875 16.3125 -16.03125 C 15.320312 -17.351562 13.882812 -18.015625 12 -18.015625 C 10.144531 -18.015625 8.710938 -17.351562 7.703125 -16.03125 C 6.691406 -14.71875 6.1875 -13.140625 6.1875 -11.296875 Z M 6.1875 -11.296875 "/></g></g></g><g fill="#545454" fill-opacity="1"><g transform="translate(215.880746, 240.118871)"><g><path d="M 6.78125 -14 L 6.78125 0 L 1.640625 0 L 1.640625 -22.5625 L 6.78125 -22.5625 L 15.75 -8.5625 L 15.8125 -8.5625 L 15.8125 -22.5625 L 20.953125 -22.5625 L 20.953125 0 L 15.8125 0 L 6.84375 -14 Z M 6.78125 -14 "/></g></g></g></svg>